<svg width="1457" height="905" viewBox="0 0 1457 905" fill="none" xmlns="http://www.w3.org/2000/svg">
<path d="M0 0H1457V905H0V0Z" fill="#5C3293"/>
<path fill-rule="evenodd" clip-rule="evenodd" d="M799.329 472.079C811.639 472.079 837.166 470.248 841.771 487.113C845.332 500.151 836.669 523.337 833.047 536.55C831.997 540.38 827.884 557.135 825.453 558.71C822.832 560.407 775.823 559.584 769.185 559.584C756.084 559.584 728.884 562.568 720.677 551.06C715.863 544.311 717.531 534.017 720.71 526.801C727.703 510.925 743.943 507.076 758.923 507.219C777.702 507.399 796.572 507.218 815.363 507.218C820.599 495.201 813.288 494.191 804.457 494.127H770.467C733.375 494.127 735.05 497.29 738.532 483.937C739.472 480.332 740.738 475.205 742.246 472.079C761.274 472.079 780.301 472.078 799.329 472.079ZM773.032 525.132C764.239 525.132 744.734 521.299 744.962 534.694C747.954 537.542 746.742 536.925 751.192 536.881C764.334 536.753 799.268 537.568 806.876 536.685C808.242 534.589 810.365 527.874 809.781 525.542C806.27 524.389 778.974 525.132 773.032 525.132Z" fill="white"/>
<path fill-rule="evenodd" clip-rule="evenodd" d="M1109.68 472.015C1131.16 472.406 1181.39 469.317 1194.88 476.401C1211.64 485.199 1203.1 509.305 1198.98 523.83C1196.65 532.041 1194.14 540.259 1191.79 548.497C1187.7 562.874 1187.03 559.573 1172.61 559.586C1152.76 559.602 1132.8 559.35 1112.96 559.585C1094.86 559.799 1075.11 557.451 1081.67 532.172C1086.33 514.231 1101.77 507.103 1118.06 507.185C1137.95 507.285 1157.85 507.218 1177.74 507.218C1181.65 498.174 1178.8 494.043 1169.42 494.11C1161.29 494.168 1153.15 494.086 1145.02 494.136L1122.57 493.42C1117.92 493.411 1104.97 495.289 1100.01 492.883C1099.17 490.226 1101.78 483.697 1102.7 480.358C1104.43 474.096 1103.04 471.895 1109.68 472.015ZM1134.77 525.132C1127.4 525.132 1104.43 521.649 1108.21 535.748C1113.23 538.111 1160.21 536.846 1169.52 536.883L1172.61 525.132H1134.77Z" fill="white"/>
<path d="M1037.25 471.354C1043.53 471.005 1087.61 470.705 1090.48 472.163C1091.28 474.669 1087.41 485.188 1086.56 488.5C1084.65 495.926 1077.96 493.441 1071.27 493.438C1062.98 493.435 1039.02 492.059 1032.73 495.438C1024.12 500.063 1016.24 549.682 1010.91 558.123C1007.75 559.583 987.476 560.75 985.415 558.733C983.373 556.733 989.453 540.308 990.389 536.769C994.02 523.036 998.466 506.02 1003.54 493.024C1009.34 478.2 1023.26 472.131 1037.25 471.354Z" fill="white"/>
<path d="M621.025 441.761C621.506 441.459 648.093 439.035 648.996 443.211C649.327 444.762 629.269 513.518 627.911 518.06C623.384 533.204 625.814 533.261 638.957 534.12C649.116 534.783 658.31 534.778 668.489 534.78C678.451 534.782 688.075 533.799 697.96 534.104C706.072 534.355 703.632 536.389 701.939 542.518C700.815 546.591 699.9 550.727 698.628 554.756C696.625 561.101 693.198 559.611 687.72 559.574L642.191 559.584C628.339 559.584 601.49 561.973 596.411 543.304C592.732 529.782 601.83 504.163 606.02 490.409C607.898 484.24 618.626 443.28 621.025 441.761Z" fill="white"/>
<path fill-rule="evenodd" clip-rule="evenodd" d="M395.208 472.044C415.252 472.454 469.364 469.316 480.794 476.654C496.863 486.97 488.151 509.141 484.046 524.05C481.761 532.347 479.393 540.614 477.004 548.869C475.907 552.66 475.584 558.157 471.896 559.228C468.827 560.119 403.728 559.585 397.19 559.577C379.072 559.554 359.864 557.154 366.648 531.604C371.412 513.664 387.548 507.238 403.561 507.177C423.442 507.102 443.358 507.218 463.246 507.218C463.932 504.163 465.482 500.264 463.888 497.572C461.63 492.693 451.756 494.126 445.93 494.127C433.547 494.127 390.021 495.607 384.356 492.75C385.221 488.295 386.502 484.127 387.649 479.759C389.464 472.856 387.796 471.893 395.208 472.044ZM457.026 525.613C454.916 524.788 406.608 524.508 401.372 525.497C391.957 527.274 391.267 535.085 394.901 536.543C396.877 537.335 452.123 536.846 454.267 536.846L455.57 534.111C456.615 531.27 457.819 527.948 457.026 525.613Z" fill="white"/>
<path d="M356.137 441.072C359.679 441.064 375.007 439.683 376.371 442.77C377.211 444.669 372.763 458.422 371.971 461.536C369.888 469.729 361.538 465.946 355.443 466.032C341.187 466.234 326.839 466.042 312.531 465.896C274.134 465.504 273.905 468.149 262.642 505.999C258.217 520.867 252.649 532.67 272.705 534.146C286.508 535.161 301.633 534.089 315.729 534.089C323.204 534.089 330.674 534.097 338.147 534.127C346.007 534.158 353.188 531.185 349.525 542.114C348.141 546.245 346.646 557.67 342.917 559.163C340.692 560.053 325.112 559.584 321.501 559.583C306.748 559.579 291.996 559.577 277.243 559.587C264.679 559.595 249.987 560.617 238.87 553.269C217.641 539.237 233.212 502.372 239.3 482.3C248.081 453.349 262.993 444.662 290.074 441.761C304.963 440.166 338.085 441.11 356.137 441.072Z" fill="white"/>
<path fill-rule="evenodd" clip-rule="evenodd" d="M875.251 442.713C877.465 439.699 898.528 440.713 902.591 441.761C904.19 447.607 895.297 467.61 896.049 471.619C899.105 472.73 920.717 472.079 925.681 472.079C949.299 472.079 989.799 466.648 981.212 506.929C977.983 522.072 972.552 539.817 960.336 549.271C945.848 560.484 927.261 559.584 910.287 559.584C890.224 559.584 870.043 559.353 849.995 559.586C841.038 559.691 840.403 561.896 847.032 540.549C851.077 527.524 873.502 445.097 875.251 442.713ZM951.086 497.152C947.015 493.527 930.206 494.816 924.397 494.816C914.997 494.816 905.568 494.896 896.172 494.811C888.527 494.742 889.69 493.56 887.595 500.755C885.793 506.944 878.055 533.005 878.403 535.907C881.736 536.617 931.588 536.532 934.953 535.784C943.275 533.931 945.949 527.772 948.372 519.881C950.097 514.266 956.016 501.544 951.086 497.152Z" fill="white"/>
<path d="M550.474 471.389C560.239 471.39 589.134 470.095 596.653 472.079C596.565 475.82 592.455 490.934 590.037 493.22C582.467 494.492 564.9 493.438 556.247 493.438C545.678 493.438 536.963 491.351 532.596 503.859C529.567 512.532 518.527 555.567 516.347 558.751C510.713 559.341 495.177 560.562 490.185 558.206C490.31 552.931 499.169 526.019 501.168 519.018C510.213 487.333 513.031 471.384 550.474 471.389Z" fill="white"/>
<path fill-rule="evenodd" clip-rule="evenodd" d="M816.678 289.504C861.424 289.776 877.833 288.319 926.19 295.83C947.755 299.179 970.159 303.007 991.333 308.531C1019.3 315.825 1055.23 325.299 1082.98 334.105L1172.61 361.837C1182.56 364.957 1192.55 367.836 1202.47 371.102C1244.8 385.04 1238.77 381.899 1201.21 376.589C1174.44 372.806 1131.55 367.248 1106.59 367.3C1060.15 367.397 1024.49 374.055 976.312 373.508C953.911 373.254 930.85 375.113 908.317 374.878C888.094 374.666 862.574 376.017 840.973 376.256C835.424 376.318 829.919 376.924 824.395 377.049C807.976 377.421 791.417 377.2 774.986 378.211C764.988 378.827 751.621 379.312 741.661 379.121C730.438 378.904 719.48 379.645 708.239 379.735C685.964 379.914 663.265 381.222 640.949 381.86C619.003 382.487 596.307 382.93 574.439 384.136C530.746 386.547 487.259 387.737 443.51 390.93C374.096 395.997 303.258 401.571 237.471 427.969C229.187 431.293 221.787 436.078 213.75 439.005C221.925 428.897 253.407 415.26 265.753 410.121C300.702 395.571 359.947 387.505 397.759 382.433C448.362 375.646 491.9 372.97 542.267 368.866C554.726 367.85 567.4 367.556 579.747 366.41C602.702 364.28 593.293 368.518 612.383 359.441C630.58 350.789 648.686 341.934 666.845 333.199C675.924 328.832 685.164 324.888 694.294 320.657L715.457 310.014C718.665 308.283 719.406 307.634 721.966 305.864C717.131 306.437 720.289 306.349 713.943 307.095C729.674 299.998 735.922 298.76 780.662 292.172C792.636 290.95 804.644 289.432 816.678 289.504ZM806.75 304.351C796.275 305.494 786.516 305.824 775.959 307.791C738.776 314.715 707.668 328.048 673.424 345.088L629.373 366.669C626.418 368.177 628.103 366.298 627.439 368.725H742.246L826.129 367.479C834.084 368.388 844.723 367.347 853.205 367.347C891.329 367.346 929.232 366.658 967.37 366.658C984.505 366.658 1006.85 367.927 1023.33 364.768C1037.28 362.096 1061.08 353.313 1068.71 352.189C1067.78 347.14 1062.49 347.072 1057.73 345.378L1018.25 332.666C999.801 327.237 981.521 322.79 962.823 318.489C942.774 313.877 923.726 311.728 903.688 308.29C883.109 304.759 860.922 305.279 840.278 303.374L806.75 304.351Z" fill="white"/>
<path d="M491.721 637.483C489.07 637.483 486.909 637.212 485.239 636.67C483.569 636.128 482.28 635.367 481.372 634.385C480.479 633.389 479.856 632.21 479.504 630.848C479.167 629.485 478.999 627.977 478.999 626.321V616.346C478.999 614.661 479.16 613.116 479.482 611.709C479.819 610.289 480.435 609.058 481.328 608.018C482.236 606.978 483.518 606.172 485.173 605.601C486.843 605.03 489.011 604.744 491.677 604.744C494.08 604.744 496.057 604.964 497.61 605.403C499.163 605.828 500.371 606.465 501.235 607.315C502.1 608.165 502.7 609.219 503.037 610.479C503.389 611.724 503.564 613.167 503.564 614.808V615.093L499.368 615.467V614.874C499.368 612.955 499.119 611.526 498.621 610.589C498.137 609.651 497.332 609.036 496.204 608.743C495.076 608.45 493.567 608.304 491.677 608.304C489.817 608.304 488.279 608.516 487.063 608.941C485.847 609.351 484.939 610.083 484.338 611.138C483.738 612.178 483.438 613.643 483.438 615.533V627.002C483.438 628.877 483.745 630.313 484.36 631.309C484.976 632.305 485.898 632.994 487.129 633.375C488.374 633.741 489.934 633.924 491.809 633.924C493.655 633.924 495.127 633.799 496.226 633.55C497.339 633.301 498.137 632.737 498.621 631.858C499.119 630.965 499.368 629.573 499.368 627.684V627.156H503.564V627.376C503.564 628.973 503.411 630.401 503.103 631.661C502.81 632.906 502.253 633.96 501.433 634.825C500.613 635.689 499.419 636.348 497.852 636.802C496.299 637.256 494.255 637.483 491.721 637.483Z" fill="white"/>
<path d="M524.175 637.483C521.523 637.483 519.341 637.212 517.627 636.67C515.928 636.128 514.602 635.367 513.65 634.385C512.698 633.389 512.031 632.21 511.65 630.848C511.27 629.485 511.079 627.977 511.079 626.321V616.324C511.079 614.639 511.262 613.094 511.628 611.688C512.009 610.281 512.676 609.058 513.628 608.018C514.58 606.978 515.906 606.172 517.605 605.601C519.319 605.03 521.509 604.744 524.175 604.744C526.738 604.744 528.848 605.044 530.503 605.645C532.158 606.246 533.447 607.088 534.37 608.172C535.293 609.241 535.938 610.494 536.304 611.929C536.685 613.365 536.875 614.925 536.875 616.609V626.014C536.875 627.64 536.685 629.156 536.304 630.562C535.938 631.954 535.286 633.169 534.348 634.209C533.425 635.235 532.136 636.041 530.481 636.626C528.826 637.198 526.724 637.483 524.175 637.483ZM524.175 633.924C526.064 633.924 527.617 633.741 528.833 633.375C530.063 632.994 530.972 632.305 531.558 631.309C532.158 630.313 532.458 628.877 532.458 627.002V615.511C532.458 613.621 532.158 612.156 531.558 611.116C530.957 610.076 530.042 609.351 528.811 608.941C527.595 608.516 526.05 608.304 524.175 608.304C522.314 608.304 520.74 608.516 519.451 608.941C518.162 609.351 517.18 610.076 516.506 611.116C515.847 612.156 515.518 613.621 515.518 615.511V627.002C515.518 628.877 515.847 630.313 516.506 631.309C517.166 632.305 518.14 632.994 519.429 633.375C520.718 633.741 522.3 633.924 524.175 633.924Z" fill="white"/>
<path d="M545.752 605.228H550.168V633.594H564.429V637H545.752V605.228Z" fill="white"/>
<path d="M583.325 637.483C580.674 637.483 578.491 637.212 576.777 636.67C575.078 636.128 573.752 635.367 572.8 634.385C571.848 633.389 571.182 632.21 570.801 630.848C570.42 629.485 570.229 627.977 570.229 626.321V616.324C570.229 614.639 570.413 613.094 570.779 611.688C571.16 610.281 571.826 609.058 572.778 608.018C573.73 606.978 575.056 606.172 576.755 605.601C578.469 605.03 580.659 604.744 583.325 604.744C585.889 604.744 587.998 605.044 589.653 605.645C591.309 606.246 592.598 607.088 593.521 608.172C594.443 609.241 595.088 610.494 595.454 611.929C595.835 613.365 596.025 614.925 596.025 616.609V626.014C596.025 627.64 595.835 629.156 595.454 630.562C595.088 631.954 594.436 633.169 593.499 634.209C592.576 635.235 591.287 636.041 589.631 636.626C587.976 637.198 585.874 637.483 583.325 637.483ZM583.325 633.924C585.215 633.924 586.768 633.741 587.983 633.375C589.214 632.994 590.122 632.305 590.708 631.309C591.309 630.313 591.609 628.877 591.609 627.002V615.511C591.609 613.621 591.309 612.156 590.708 611.116C590.107 610.076 589.192 609.351 587.961 608.941C586.746 608.516 585.2 608.304 583.325 608.304C581.465 608.304 579.89 608.516 578.601 608.941C577.312 609.351 576.331 610.076 575.657 611.116C574.998 612.156 574.668 613.621 574.668 615.511V627.002C574.668 628.877 574.998 630.313 575.657 631.309C576.316 632.305 577.29 632.994 578.579 633.375C579.868 633.741 581.45 633.924 583.325 633.924Z" fill="white"/>
<path d="M604.902 637V605.228H619.075C620.862 605.228 622.415 605.521 623.733 606.106C625.066 606.678 626.099 607.652 626.831 609.029C627.578 610.391 627.952 612.259 627.952 614.632C627.952 616.346 627.761 617.752 627.38 618.851C627 619.949 626.472 620.828 625.798 621.487C625.139 622.132 624.363 622.645 623.469 623.025L630.215 637H625.667L619.36 623.816H609.341V637H604.902ZM609.341 620.477H618.701C619.99 620.477 620.979 620.235 621.667 619.751C622.356 619.268 622.832 618.616 623.096 617.796C623.374 616.961 623.513 616.038 623.513 615.027C623.513 614.002 623.425 612.999 623.25 612.017C623.088 611.036 622.708 610.223 622.107 609.578C621.506 608.919 620.54 608.589 619.207 608.589H609.341V620.477Z" fill="white"/>
<path d="M647.397 627.354C647.397 625.142 647.83 623.37 648.694 622.037C649.558 620.689 651.052 619.7 653.176 619.07C652.019 618.001 651.089 616.961 650.386 615.95C649.683 614.939 649.331 613.592 649.331 611.907C649.331 610.574 649.595 609.344 650.122 608.216C650.664 607.073 651.609 606.158 652.957 605.469C654.319 604.766 656.223 604.415 658.669 604.415C660.779 604.415 662.537 604.568 663.943 604.876C665.364 605.169 666.433 605.755 667.151 606.634C667.869 607.498 668.228 608.794 668.228 610.523V612.742H664.58V611.424C664.58 610.413 664.397 609.644 664.031 609.117C663.679 608.589 663.093 608.23 662.273 608.04C661.467 607.85 660.376 607.754 658.999 607.754C657.461 607.754 656.296 607.952 655.505 608.348C654.714 608.743 654.18 609.285 653.901 609.974C653.638 610.647 653.506 611.409 653.506 612.259C653.506 612.83 653.586 613.357 653.748 613.841C653.909 614.31 654.187 614.8 654.583 615.313C654.978 615.811 655.52 616.397 656.208 617.071L667.7 627.991C667.715 627.83 667.722 627.669 667.722 627.508C667.722 627.347 667.722 627.178 667.722 627.002V619.905H671.567V626.014C671.567 626.966 671.545 627.889 671.501 628.782C671.458 629.661 671.34 630.489 671.15 631.265L674.995 634.935L672.71 637.417L669.59 634.495C668.77 635.433 667.554 636.172 665.942 636.714C664.331 637.256 662.134 637.527 659.351 637.527C656.919 637.527 654.919 637.249 653.352 636.692C651.799 636.136 650.591 635.381 649.727 634.429C648.862 633.477 648.254 632.393 647.903 631.177C647.566 629.947 647.397 628.672 647.397 627.354ZM666.887 631.946L655.352 621.114C654.253 621.421 653.455 621.89 652.957 622.52C652.473 623.135 652.166 623.853 652.034 624.673C651.902 625.479 651.836 626.329 651.836 627.222C651.836 628.731 652.07 630.005 652.539 631.045C653.008 632.085 653.792 632.876 654.89 633.418C655.989 633.96 657.476 634.231 659.351 634.231C660.713 634.231 661.885 634.188 662.866 634.1C663.862 633.997 664.69 633.785 665.349 633.462C666.008 633.14 666.521 632.635 666.887 631.946Z" fill="white"/>
<path d="M692.529 637V605.228H705.142C708.086 605.228 710.437 605.704 712.195 606.656C713.953 607.593 715.22 608.868 715.996 610.479C716.787 612.09 717.183 613.907 717.183 615.928V626.409C717.183 628.694 716.743 630.628 715.864 632.21C714.985 633.777 713.66 634.971 711.887 635.792C710.115 636.597 707.881 637 705.186 637H692.529ZM696.968 633.704H704.746C706.27 633.704 707.632 633.543 708.833 633.221C710.049 632.884 711.008 632.225 711.711 631.243C712.415 630.262 712.766 628.797 712.766 626.849V615.665C712.766 613.702 712.407 612.215 711.689 611.204C710.986 610.179 710.027 609.483 708.811 609.117C707.61 608.736 706.255 608.545 704.746 608.545H696.968V633.704Z" fill="white"/>
<path d="M725.972 605.228H745.813V608.523H730.388V618.982H744.011V622.278H730.388V633.704H746.077V637H725.972V605.228Z" fill="white"/>
<path d="M763.962 637.483C761.604 637.483 759.429 637.234 757.437 636.736C755.444 636.224 753.613 635.484 751.943 634.517L753.503 631.133C754.719 631.851 756.265 632.496 758.14 633.067C760.015 633.638 761.926 633.924 763.875 633.924C765.603 633.924 766.921 633.697 767.83 633.243C768.752 632.789 769.39 632.085 769.741 631.133C770.093 630.167 770.269 628.921 770.269 627.398C770.269 626.797 770.166 626.263 769.961 625.794C769.771 625.325 769.397 624.893 768.84 624.498C768.298 624.102 767.485 623.729 766.401 623.377L758.733 620.828C757.268 620.345 756.082 619.781 755.173 619.136C754.265 618.477 753.599 617.664 753.174 616.697C752.749 615.716 752.537 614.507 752.537 613.072C752.537 611.036 752.998 609.41 753.921 608.194C754.858 606.978 756.133 606.099 757.744 605.557C759.355 605.015 761.172 604.744 763.193 604.744C765.903 604.744 768.101 604.957 769.785 605.381C771.47 605.792 772.825 606.319 773.85 606.963L772.773 610.413C771.821 609.9 770.627 609.424 769.192 608.985C767.771 608.531 766.028 608.304 763.962 608.304C761.663 608.304 759.897 608.604 758.667 609.205C757.437 609.805 756.821 611.102 756.821 613.094C756.821 614.061 757.026 614.852 757.437 615.467C757.861 616.067 758.748 616.602 760.095 617.071L768.093 619.773C770.261 620.506 771.843 621.473 772.839 622.674C773.85 623.875 774.355 625.677 774.355 628.079C774.355 630.027 774.004 631.705 773.301 633.111C772.598 634.517 771.477 635.601 769.939 636.363C768.416 637.11 766.423 637.483 763.962 637.483Z" fill="white"/>
<path d="M781.606 633.704H787.671V608.501H781.606V605.228H798.13V608.501H792.087V633.704H798.13V637H781.606V633.704Z" fill="white"/>
<path d="M819.619 637.483C816.968 637.483 814.778 637.212 813.049 636.67C811.335 636.128 809.995 635.367 809.028 634.385C808.062 633.389 807.38 632.21 806.985 630.848C806.589 629.485 806.392 627.977 806.392 626.321V616.346C806.392 614.661 806.582 613.116 806.963 611.709C807.358 610.289 808.04 609.058 809.006 608.018C809.973 606.978 811.313 606.172 813.027 605.601C814.756 605.03 816.953 604.744 819.619 604.744C822.183 604.744 824.263 604.986 825.859 605.469C827.471 605.938 828.708 606.604 829.573 607.469C830.437 608.318 831.03 609.322 831.353 610.479C831.675 611.622 831.836 612.867 831.836 614.214V614.698L827.793 615.027V614.544C827.793 612.903 827.566 611.636 827.112 610.743C826.672 609.834 825.859 609.205 824.673 608.853C823.501 608.487 821.816 608.304 819.619 608.304C817.759 608.304 816.169 608.516 814.851 608.941C813.547 609.351 812.551 610.083 811.863 611.138C811.174 612.178 810.83 613.643 810.83 615.533V627.002C810.83 628.877 811.167 630.313 811.841 631.309C812.529 632.305 813.525 632.994 814.829 633.375C816.147 633.741 817.744 633.924 819.619 633.924C821.509 633.924 823.054 633.741 824.255 633.375C825.457 632.994 826.335 632.305 826.892 631.309C827.463 630.313 827.749 628.877 827.749 627.002V624.08H820.212V620.85H832.188V637H829.771L829.221 631.595C829.089 632.459 828.804 633.25 828.364 633.968C827.939 634.686 827.339 635.308 826.562 635.835C825.801 636.363 824.841 636.766 823.684 637.044C822.542 637.337 821.187 637.483 819.619 637.483Z" fill="white"/>
<path d="M841.284 605.228H844.646L863.411 631.441L862.839 631.617V605.228H866.729V637H862.795L844.602 611.951L845.173 611.753V637H841.284V605.228Z" fill="white"/>
<path d="M887.559 605.228H891.975V633.594H906.235V637H887.559V605.228Z" fill="white"/>
<path d="M909.839 637L921.682 605.228H925.571L937.437 637H932.932L923.418 609.336L924.077 609.358L914.431 637H909.839ZM914.673 630.804L915.728 627.552H931.614L932.625 630.804H914.673Z" fill="white"/>
<path d="M944.116 637V605.228H955.63C958.574 605.228 960.801 605.572 962.31 606.26C963.818 606.934 964.836 607.923 965.364 609.227C965.906 610.53 966.177 612.105 966.177 613.951C966.177 615.459 965.825 616.778 965.122 617.906C964.419 619.034 963.174 619.81 961.387 620.235L961.453 619.883C962.859 620.074 964.023 620.542 964.946 621.29C965.869 622.022 966.558 622.959 967.012 624.102C967.48 625.245 967.715 626.534 967.715 627.969C967.715 631.119 966.829 633.411 965.056 634.847C963.284 636.282 960.464 637 956.597 637H944.116ZM948.555 633.726H956.267C957.908 633.726 959.248 633.565 960.288 633.243C961.343 632.92 962.119 632.312 962.617 631.419C963.115 630.525 963.364 629.214 963.364 627.486C963.364 626.519 963.196 625.596 962.859 624.717C962.537 623.824 961.943 623.099 961.079 622.542C960.215 621.985 958.97 621.707 957.344 621.707H948.555V633.726ZM948.555 618.697H956.707C958.04 618.697 959.072 618.506 959.805 618.125C960.537 617.73 961.042 617.181 961.321 616.478C961.614 615.774 961.76 614.947 961.76 613.995C961.76 612.457 961.562 611.299 961.167 610.523C960.786 609.747 960.098 609.227 959.102 608.963C958.12 608.685 956.736 608.545 954.949 608.545H948.555V618.697Z" fill="white"/>
</svg>
